<svg xmlns="http://www.w3.org/2000/svg" width="27.221" height="22.683" viewBox="0 0 27.221 22.683">
  <g id="Arrow_-_Right" data-name="Arrow - Right" transform="translate(0 22.683) rotate(-90)">
    <path id="Arrow_-_Right-2" data-name="Arrow - Right" d="M11,27.173l-.007,0-.017-.005-.015,0-.008,0-.021-.007h0a1.258,1.258,0,0,1-.476-.295h0L.366,16.875a1.223,1.223,0,0,1,0-1.749A1.269,1.269,0,0,1,2,15.009l.14.12,7.941,7.857V1.237a1.257,1.257,0,0,1,2.5-.167l.011.167v21.75l7.94-7.858a1.269,1.269,0,0,1,1.776,0,1.224,1.224,0,0,1,.125,1.61l-.121.139L12.233,26.857a1.263,1.263,0,0,1-.89.364A1.276,1.276,0,0,1,11,27.173Z" transform="translate(0 0)" fill="#0172b4"/>
  </g>
</svg>
