<svg id="Component_14_5" data-name="Component 14 – 5" xmlns="http://www.w3.org/2000/svg" width="208" height="208" viewBox="0 0 208 208">
  <circle id="Ellipse_156" data-name="Ellipse 156" cx="104" cy="104" r="104" fill="#02a7de" opacity="0.5"/>
  <g id="place-localizer-svgrepo-com" transform="translate(-13.091 59)">
    <path id="Path_259" data-name="Path 259" d="M114.056,0A29.656,29.656,0,0,0,84.424,29.613c0,15.693,26.929,58.156,28.076,59.956a1.845,1.845,0,0,0,3.113,0c1.146-1.8,28.076-44.263,28.076-59.956A29.656,29.656,0,0,0,114.056,0Zm0,85.095c-2.437-3.942-7.383-12.1-12.281-21.146-8.937-16.5-13.661-28.374-13.661-34.336a25.941,25.941,0,0,1,51.883,0c0,5.962-4.724,17.835-13.661,34.336C121.439,72.991,116.493,81.152,114.056,85.095Z" transform="translate(0 0)" fill="#fff"/>
    <path id="Path_260" data-name="Path 260" d="M178.879,76.071a9.574,9.574,0,1,0,9.839,9.571A9.719,9.719,0,0,0,178.879,76.071Zm0,16.551a6.985,6.985,0,1,1,7.248-6.98A7.126,7.126,0,0,1,178.879,92.622Z" transform="translate(-64.823 -60.226)" fill="#fff"/>
  </g>
</svg>
