<svg id="Component_14_6" data-name="Component 14 – 6" xmlns="http://www.w3.org/2000/svg" width="208" height="208" viewBox="0 0 208 208">
  <circle id="Ellipse_156" data-name="Ellipse 156" cx="104" cy="104" r="104" fill="#02a7de" opacity="0.5"/>
  <path id="email-svgrepo-com_1_" data-name="email-svgrepo-com (1)" d="M74.686,12.814A43.75,43.75,0,0,0,12.814,74.686a43.795,43.795,0,0,0,47.967,9.375l-2.109-4.985A38.345,38.345,0,1,1,82.088,43.75c0,9.259-5.689,13.477-10.975,13.477S60.138,53.01,60.138,43.75a16.4,16.4,0,1,0-3.285,9.832,16.9,16.9,0,0,0,2.894,4.17,15.663,15.663,0,0,0,22.734,0c3.285-3.453,5.021-8.3,5.021-14A43.465,43.465,0,0,0,74.686,12.814ZM43.75,54.725A10.975,10.975,0,1,1,54.725,43.75,10.988,10.988,0,0,1,43.75,54.725Z" transform="translate(61 59.802)" fill="#fff"/>
</svg>
