<svg id="Group_45" data-name="Group 45" xmlns="http://www.w3.org/2000/svg" width="87.5" height="87.302" viewBox="0 0 87.5 87.302">
  <path id="Path_258" data-name="Path 258" d="M85.538,69.28,72.025,55.766a7.047,7.047,0,0,0-9.934.187L55.284,62.76c-.43-.238-.875-.485-1.343-.748A67.753,67.753,0,0,1,37.565,50.169,68.109,68.109,0,0,1,25.7,33.764c-.254-.456-.495-.895-.733-1.312l4.569-4.563,2.246-2.249a7.037,7.037,0,0,0,.181-9.934L18.449,2.19a7.039,7.039,0,0,0-9.934.187L4.706,6.207l.1.1a21.992,21.992,0,0,0-3.138,5.535,22.943,22.943,0,0,0-1.4,5.614C-1.508,32.253,5.252,45.771,23.6,64.118,48.954,89.473,69.39,87.558,70.271,87.464A22.793,22.793,0,0,0,75.9,86.05a21.95,21.95,0,0,0,5.515-3.124L81.5,83l3.858-3.778A7.051,7.051,0,0,0,85.538,69.28Zm-3.181,6.936-1.7,1.7-.677.651A16.994,16.994,0,0,1,74.371,82.1a18.825,18.825,0,0,1-4.574,1.15c-.193.019-19.414,1.659-43.2-22.129C6.368,40.893,3.126,29.238,4.485,17.95A18.685,18.685,0,0,1,5.63,13.375,17.221,17.221,0,0,1,9.164,7.752l2.351-2.374A2.794,2.794,0,0,1,15.45,5.19L28.963,18.7a2.806,2.806,0,0,1-.182,3.943l-9.126,9.117L20.5,33.18c.468.79.963,1.675,1.492,2.637A71.6,71.6,0,0,0,34.566,53.168,71.582,71.582,0,0,0,51.883,65.723c.975.539,1.866,1.036,2.665,1.512l1.421.842,9.12-9.123a2.812,2.812,0,0,1,3.946-.184l13.506,13.51A2.8,2.8,0,0,1,82.357,76.216Z" transform="translate(0 -0.229)" fill="#fff"/>
</svg>
