<svg xmlns="http://www.w3.org/2000/svg" width="171" height="34" viewBox="0 0 171 34">
  <g id="Group_192" data-name="Group 192" transform="translate(0 -0.053)">
    <path id="Star_6" data-name="Star 6" d="M16.052,2.82a1,1,0,0,1,1.9,0l3.08,9.162a1,1,0,0,0,.921.681l9.335.251a1,1,0,0,1,.6,1.778L24.391,20.73a1,1,0,0,0-.335,1.05l2.669,9.452a1,1,0,0,1-1.549,1.082l-7.59-5.492a1,1,0,0,0-1.172,0l-7.59,5.492a1,1,0,0,1-1.549-1.082L9.944,21.78a1,1,0,0,0-.335-1.05L2.116,14.692a1,1,0,0,1,.6-1.778l9.335-.251a1,1,0,0,0,.921-.681Z" transform="translate(0 0.053)" fill="#fa0"/>
    <path id="Star_7" data-name="Star 7" d="M16.052,2.82a1,1,0,0,1,1.9,0l3.08,9.162a1,1,0,0,0,.921.681l9.335.251a1,1,0,0,1,.6,1.778L24.391,20.73a1,1,0,0,0-.335,1.05l2.669,9.452a1,1,0,0,1-1.549,1.082l-7.59-5.492a1,1,0,0,0-1.172,0l-7.59,5.492a1,1,0,0,1-1.549-1.082L9.944,21.78a1,1,0,0,0-.335-1.05L2.116,14.692a1,1,0,0,1,.6-1.778l9.335-.251a1,1,0,0,0,.921-.681Z" transform="translate(34 0.053)" fill="#fa0"/>
    <path id="Star_8" data-name="Star 8" d="M16.052,2.82a1,1,0,0,1,1.9,0l3.08,9.162a1,1,0,0,0,.921.681l9.335.251a1,1,0,0,1,.6,1.778L24.391,20.73a1,1,0,0,0-.335,1.05l2.669,9.452a1,1,0,0,1-1.549,1.082l-7.59-5.492a1,1,0,0,0-1.172,0l-7.59,5.492a1,1,0,0,1-1.549-1.082L9.944,21.78a1,1,0,0,0-.335-1.05L2.116,14.692a1,1,0,0,1,.6-1.778l9.335-.251a1,1,0,0,0,.921-.681Z" transform="translate(68 0.053)" fill="#fa0"/>
    <path id="Star_9" data-name="Star 9" d="M16.555,2.731a1,1,0,0,1,1.89,0l3.2,9.258a1,1,0,0,0,.919.673l9.652.252a1,1,0,0,1,.59,1.787l-7.7,6.026a1,1,0,0,0-.344,1.067l2.753,9.471a1,1,0,0,1-1.535,1.1l-7.91-5.56a1,1,0,0,0-1.15,0l-7.91,5.56a1,1,0,0,1-1.535-1.1l2.753-9.471a1,1,0,0,0-.344-1.067L2.19,14.7a1,1,0,0,1,.59-1.787l9.652-.252a1,1,0,0,0,.919-.673Z" transform="translate(102 0.053)" fill="#fa0"/>
    <path id="Star_10" data-name="Star 10" d="M16.052,2.82a1,1,0,0,1,1.9,0l3.08,9.162a1,1,0,0,0,.921.681l9.335.251a1,1,0,0,1,.6,1.778L24.391,20.73a1,1,0,0,0-.335,1.05l2.669,9.452a1,1,0,0,1-1.549,1.082l-7.59-5.492a1,1,0,0,0-1.172,0l-7.59,5.492a1,1,0,0,1-1.549-1.082L9.944,21.78a1,1,0,0,0-.335-1.05L2.116,14.692a1,1,0,0,1,.6-1.778l9.335-.251a1,1,0,0,0,.921-.681Z" transform="translate(137 0.053)" fill="#fa0"/>
  </g>
</svg>
