<svg xmlns="http://www.w3.org/2000/svg" xmlns:xlink="http://www.w3.org/1999/xlink" width="158" height="158" viewBox="0 0 158 158">
  <defs>
    <filter id="Ellipse_61" x="0" y="0" width="158" height="158" filterUnits="userSpaceOnUse">
      <feOffset dy="14" input="SourceAlpha"/>
      <feGaussianBlur stdDeviation="14" result="blur"/>
      <feFlood flood-opacity="0.102"/>
      <feComposite operator="in" in2="blur"/>
      <feComposite in="SourceGraphic"/>
    </filter>
  </defs>
  <g id="Group_292" data-name="Group 292" transform="translate(42 28)">
    <g transform="matrix(1, 0, 0, 1, -42, -28)" filter="url(#Ellipse_61)">
      <circle id="Ellipse_61-2" data-name="Ellipse 61" cx="37" cy="37" r="37" transform="translate(116 102) rotate(180)" fill="#fff"/>
    </g>
    <g id="Arrow_-_Right_2" data-name="Arrow - Right 2" transform="translate(29.518 24.518)">
      <path id="Arrow_-_Right_2-2" data-name="Arrow - Right 2" d="M13.617,24.514a1.262,1.262,0,0,0,.126-1.667l-.126-.144L3.152,12.444,13.617,2.186A1.262,1.262,0,0,0,13.744.519L13.617.375a1.326,1.326,0,0,0-1.7-.124l-.146.124L.383,11.539a1.262,1.262,0,0,0-.126,1.667l.126.144L11.771,24.514A1.325,1.325,0,0,0,13.617,24.514Z" transform="translate(0 0)" fill="#0172b4"/>
    </g>
  </g>
</svg>
