<svg xmlns="http://www.w3.org/2000/svg" width="17" height="15.3" viewBox="0 0 17 15.3">
  <path id="Message" d="M4.637,15.3a4.462,4.462,0,0,1-3.328-1.439A5.193,5.193,0,0,1,0,10.32V4.98A5.193,5.193,0,0,1,1.309,1.439,4.462,4.462,0,0,1,4.637,0h7.709a4.722,4.722,0,0,1,4.646,4.98l0,5.3a4.78,4.78,0,0,1-1.255,3.511,4.724,4.724,0,0,1-3.4,1.507ZM1.29,4.98v5.34A3.41,3.41,0,0,0,4.637,14h7.694a3.419,3.419,0,0,0,2.46-1.094,3.477,3.477,0,0,0,.91-2.587V4.942a3.468,3.468,0,0,0-.911-2.549A3.419,3.419,0,0,0,12.332,1.3H4.637A3.41,3.41,0,0,0,1.29,4.98ZM7.125,8.617l-.137-.1L3.474,5.708a.654.654,0,0,1-.1-.913A.642.642,0,0,1,4.2,4.636l.08.054L7.786,7.5a1.17,1.17,0,0,0,1.343.075l.1-.07,3.485-2.809a.641.641,0,0,1,.906.1.654.654,0,0,1-.03.848l-.07.065L10.029,8.52a2.457,2.457,0,0,1-2.9.1Z" fill="#0172b4"/>
</svg>
