<svg xmlns="http://www.w3.org/2000/svg" width="34" height="34" viewBox="0 0 34 34">
  <path id="Subtraction_3" data-name="Subtraction 3" d="M4149,34h-26a4,4,0,0,1-4-4V4a4,4,0,0,1,4-4h26a4,4,0,0,1,4,4V30A4,4,0,0,1,4149,34Zm-9.68-17.016a1.9,1.9,0,0,1,1.425.5c.661.666.653,1.894.646,2.881-.007,1.151,0,2.358.007,3.424v.138c0,.75.009,1.525.009,2.283h3.8V19.705c-.034-4.424-1.217-6.069-4.366-6.069A4.579,4.579,0,0,0,4137,15.465V13.883h-3.8V26.212h3.8V19.9C4137,18.572,4137.406,16.984,4139.32,16.984Zm-12.227-3.1V26.212h3.8V13.883Zm1.917-6.088a2.226,2.226,0,1,0,2.221,2.226A2.226,2.226,0,0,0,4129.011,7.8Z" transform="translate(-4119)" fill="#02a7de"/>
</svg>
