<svg xmlns="http://www.w3.org/2000/svg" width="34" height="34" viewBox="0 0 34 34">
  <path id="Subtraction_5" data-name="Subtraction 5" d="M4149,34h-26a4,4,0,0,1-4-4V4a4,4,0,0,1,4-4h26a4,4,0,0,1,4,4V30A4,4,0,0,1,4149,34Zm-22.209-10.949a10.469,10.469,0,0,0,5.78,1.737,10.34,10.34,0,0,0,7.437-3.159,11.914,11.914,0,0,0,3.316-8.564,6.512,6.512,0,0,0,1.882-2.042,6.843,6.843,0,0,1-2.16.65,4.042,4.042,0,0,0,1.64-2.168,9.181,9.181,0,0,1-2.389.955,3.785,3.785,0,0,0-2.8-1.255,3.894,3.894,0,0,0-3.824,3.951,4.069,4.069,0,0,0,.1.884,9.464,9.464,0,0,1-7.836-4.093,3.964,3.964,0,0,0-.484,2.618,3.909,3.909,0,0,0,1.646,2.614l-.005,0-.106,0a3.119,3.119,0,0,1-1.586-.463,3.621,3.621,0,0,0,.463,1.954,3.9,3.9,0,0,0,2.55,1.918,2.505,2.505,0,0,1-.892.137,2.861,2.861,0,0,1-.79-.089,3.764,3.764,0,0,0,3.533,2.75,7.261,7.261,0,0,1-4.9,1.679c-.2,0-.39-.006-.574-.019Z" transform="translate(-4119)" fill="#02a7de"/>
</svg>
