<svg xmlns="http://www.w3.org/2000/svg" width="34" height="34" viewBox="0 0 34 34">
  <path id="Subtraction_2" data-name="Subtraction 2" d="M4149,34h-26a4,4,0,0,1-4-4V4a4,4,0,0,1,4-4h26a4,4,0,0,1,4,4V30A4,4,0,0,1,4149,34Zm-6.9-20.567a4.889,4.889,0,0,0-2.021.394,4.733,4.733,0,0,0-2.6,2.716,5.537,5.537,0,0,0-.366,2.03,5.98,5.98,0,0,0,.34,2.066,4.645,4.645,0,0,0,.979,1.611A4.476,4.476,0,0,0,4140,23.288a5.565,5.565,0,0,0,2.068.364,5.008,5.008,0,0,0,2.8-.756,4.426,4.426,0,0,0,1.73-2.5h-2.356a1.681,1.681,0,0,1-.709.856,2.724,2.724,0,0,1-3.1-.167l.04-.015a2.754,2.754,0,0,1-.645-1.88h7a7.344,7.344,0,0,0-.192-2.166,5.113,5.113,0,0,0-.856-1.84,4.373,4.373,0,0,0-1.511-1.274A4.583,4.583,0,0,0,4142.1,13.433ZM4125,10.007V23.435h6.528a6.672,6.672,0,0,0,1.739-.231,4.622,4.622,0,0,0,1.521-.7,3.386,3.386,0,0,0,1.056-1.229,3.756,3.756,0,0,0,.373-1.757,3.741,3.741,0,0,0-.605-2.148,3.218,3.218,0,0,0-1.84-1.247,3.32,3.32,0,0,0,1.367-1.111,2.967,2.967,0,0,0,.462-1.693,3.645,3.645,0,0,0-.31-1.575,2.588,2.588,0,0,0-.875-1.02,3.906,3.906,0,0,0-1.351-.554,8.064,8.064,0,0,0-1.748-.171v.006Zm14.218.893v1.324h5.432V10.9ZM4131.1,21.129h-3.15V17.442h3.195a2.521,2.521,0,0,1,1.537.437,1.77,1.77,0,0,1,.584,1.475,1.852,1.852,0,0,1-.174.874,1.343,1.343,0,0,1-.473.531,2.129,2.129,0,0,1-.694.273,3.847,3.847,0,0,1-.824.084v.012Zm13-3.611h-4.335a3.126,3.126,0,0,1,.122-.646,1.9,1.9,0,0,1,.357-.683,1.967,1.967,0,0,1,.673-.538,2.256,2.256,0,0,1,1.061-.216,2.007,2.007,0,0,1,1.509.539l0,.008h0l0,0v.009l0,0a2.6,2.6,0,0,1,.617,1.533Zm-13.162-2.1h-3V12.283h2.757a3.958,3.958,0,0,1,.765.068,1.929,1.929,0,0,1,.655.233,1.341,1.341,0,0,1,.456.466,1.72,1.72,0,0,1,.164.77,1.406,1.406,0,0,1-.5,1.218,2.136,2.136,0,0,1-1.3.374h0Z" transform="translate(-4119)" fill="#02a7de"/>
</svg>
